<?xml version="1.0" encoding="UTF-8"?>
<svg id="Layer_10" data-name="Layer 10" xmlns="http://www.w3.org/2000/svg" viewBox="0 0 673.91 675.9">
  <defs>
    <style>
      .cls-1 {
        stroke-width: 2px;
      }

      .cls-1, .cls-2 {
        fill: none;
        stroke: #000;
        stroke-miterlimit: 10;
      }

      .cls-2 {
        stroke-width: 4px;
      }

      .cls-3, .cls-4, .cls-5 {
        stroke-width: 0px;
      }

      .cls-4 {
        fill: #565b5a;
      }

      .cls-5 {
        fill: #414443;
      }
    </style>
  </defs>
  <g>
    <g>
      <line class="cls-1" x1="337.85" y1="120.07" x2="337.32" y2="190.71"/>
      <polygon class="cls-3" points="337.96 105.95 329.68 125.79 337.84 121.13 345.94 125.91 337.96 105.95"/>
      <polygon class="cls-3" points="337.21 204.83 329.23 184.87 337.33 189.65 345.49 184.99 337.21 204.83"/>
    </g>
    <g>
      <line class="cls-1" x1="337.21" y1="485.19" x2="337.21" y2="555.83"/>
      <polygon class="cls-3" points="337.21 471.07 329.08 490.97 337.21 486.25 345.34 490.97 337.21 471.07"/>
      <polygon class="cls-3" points="337.21 569.95 329.08 550.05 337.21 554.77 345.34 550.05 337.21 569.95"/>
    </g>
    <g>
      <line class="cls-1" x1="182.41" y1="489.38" x2="232.24" y2="440.56"/>
      <polygon class="cls-3" points="172.33 499.26 192.23 491.15 183.17 488.64 180.85 479.53 172.33 499.26"/>
      <polygon class="cls-3" points="242.33 430.67 233.81 450.41 231.49 441.3 222.43 438.79 242.33 430.67"/>
    </g>
    <g>
      <line class="cls-1" x1="438.02" y1="231.15" x2="487.85" y2="182.33"/>
      <polygon class="cls-3" points="427.93 241.03 447.83 232.91 438.77 230.41 436.45 221.3 427.93 241.03"/>
      <polygon class="cls-3" points="497.93 172.44 489.41 192.18 487.09 183.07 478.03 180.56 497.93 172.44"/>
    </g>
    <g>
      <line class="cls-1" x1="236.87" y1="231.07" x2="187.04" y2="182.24"/>
      <polygon class="cls-3" points="246.96 240.95 238.43 221.22 236.12 230.33 227.06 232.83 246.96 240.95"/>
      <polygon class="cls-3" points="176.95 172.36 196.86 180.48 187.79 182.98 185.48 192.09 176.95 172.36"/>
    </g>
    <g>
      <line class="cls-1" x1="491.87" y1="488.07" x2="442.04" y2="439.24"/>
      <polygon class="cls-3" points="501.96 497.95 493.44 478.22 491.12 487.33 482.06 489.83 501.96 497.95"/>
      <polygon class="cls-3" points="431.96 429.36 451.86 437.48 442.8 439.98 440.48 449.09 431.96 429.36"/>
    </g>
    <g>
      <line class="cls-1" x1="119.08" y1="333.7" x2="188.84" y2="333.7"/>
      <polygon class="cls-3" points="104.96 333.7 124.86 341.83 120.13 333.7 124.86 325.57 104.96 333.7"/>
      <polygon class="cls-3" points="202.96 333.7 183.06 341.83 187.78 333.7 183.06 325.57 202.96 333.7"/>
    </g>
    <g>
      <line class="cls-1" x1="485.08" y1="333.7" x2="554.84" y2="333.7"/>
      <polygon class="cls-3" points="470.96 333.7 490.86 341.83 486.13 333.7 490.86 325.57 470.96 333.7"/>
      <polygon class="cls-3" points="568.96 333.7 549.06 341.83 553.78 333.7 549.06 325.57 568.96 333.7"/>
    </g>
    <circle class="cls-2" cx="337.21" cy="337.33" r="132.5"/>
  </g>
  <g id="Black">
    <polygon class="cls-5" points="570.08 565.11 586.11 549.08 586.11 493 570.08 509.02 570.08 565.11"/>
    <rect class="cls-3" x="514" y="509.02" width="56.08" height="56.08"/>
    <polygon class="cls-4" points="514 509.02 570.08 509.02 586.11 493 530.02 493 514 509.02"/>
  </g>
  <g id="Black-2" data-name="Black">
    <polygon class="cls-5" points="643.08 366 659.11 349.98 659.11 293.89 643.08 309.92 643.08 366"/>
    <rect class="cls-3" x="587" y="309.92" width="56.08" height="56.08"/>
    <polygon class="cls-4" points="587 309.92 643.08 309.92 659.11 293.89 603.02 293.89 587 309.92"/>
  </g>
  <g id="Black-3" data-name="Black">
    <polygon class="cls-5" points="562.08 165 578.11 148.98 578.11 92.89 562.08 108.92 562.08 165"/>
    <rect class="cls-3" x="506" y="108.92" width="56.08" height="56.08"/>
    <polygon class="cls-4" points="506 108.92 562.08 108.92 578.11 92.89 522.02 92.89 506 108.92"/>
  </g>
  <g id="Black-4" data-name="Black">
    <polygon class="cls-5" points="359.2 94.16 375.23 78.13 375.23 22.05 359.2 38.07 359.2 94.16"/>
    <rect class="cls-3" x="303.12" y="38.07" width="56.08" height="56.08"/>
    <polygon class="cls-4" points="303.12 38.07 359.2 38.07 375.23 22.05 319.14 22.05 303.12 38.07"/>
  </g>
  <g id="Black-5" data-name="Black">
    <polygon class="cls-5" points="128.25 164.05 112.23 148.02 112.23 91.94 128.25 107.96 128.25 164.05"/>
    <rect class="cls-3" x="128.25" y="107.96" width="56.08" height="56.08"/>
    <polygon class="cls-4" points="184.34 107.96 128.25 107.96 112.23 91.94 168.31 91.94 184.34 107.96"/>
  </g>
  <g id="Black-6" data-name="Black">
    <polygon class="cls-5" points="35.14 370.05 19.12 354.02 19.12 297.94 35.14 313.96 35.14 370.05"/>
    <rect class="cls-3" x="35.14" y="313.96" width="56.08" height="56.08"/>
    <polygon class="cls-4" points="91.23 313.96 35.14 313.96 19.12 297.94 75.2 297.94 91.23 313.96"/>
  </g>
  <g id="Black-7" data-name="Black">
    <polygon class="cls-5" points="109.14 581.05 93.12 565.02 93.12 508.94 109.14 524.96 109.14 581.05"/>
    <rect class="cls-3" x="109.14" y="524.96" width="56.08" height="56.08"/>
    <polygon class="cls-4" points="165.23 524.96 109.14 524.96 93.12 508.94 149.2 508.94 165.23 524.96"/>
  </g>
  <g id="Black-8" data-name="Black">
    <polygon class="cls-5" points="356.2 654.16 372.23 638.13 372.23 582.05 356.2 598.07 356.2 654.16"/>
    <rect class="cls-3" x="300.12" y="598.07" width="56.08" height="56.08"/>
    <polygon class="cls-4" points="300.12 598.07 356.2 598.07 372.23 582.05 316.14 582.05 300.12 598.07"/>
  </g>
</svg>