<?xml version="1.0" encoding="UTF-8"?>
<svg id="Layer_9" data-name="Layer 9" xmlns="http://www.w3.org/2000/svg" viewBox="0 0 1261.18 899.04">
  <defs>
    <style>
      .cls-1, .cls-2, .cls-3, .cls-4 {
        stroke: #000;
        stroke-miterlimit: 10;
      }

      .cls-2 {
        stroke-width: 4px;
      }

      .cls-3 {
        stroke-width: 2px;
      }

      .cls-3, .cls-4 {
        fill: none;
      }

      .cls-5 {
        stroke-width: 0px;
      }
    </style>
  </defs>
  <g>
    <path class="cls-1" d="M331.4,193.59v-102.56h-34.16v96.24l-33.53,17.08v-68.95h-19.61v51.24l-33.53,15.18v-19.61l-55.03,27.83v63.26h203.06v-91.14l-27.2,11.43ZM193.13,256.21h-15.81v-23.41h15.81v23.41ZM228.57,256.21h-15.81v-23.41h15.81v23.41ZM264.98,256.21h-15.81v-23.41h15.81v23.41ZM302.93,256.21h-15.81v-23.41h15.81v23.41Z"/>
    <g>
      <path class="cls-5" d="M394.73,177.37c14.14,0,25.6-5.12,25.6-11.43s-11.46-11.43-25.6-11.43-25.6,5.12-25.6,11.43,11.46,11.43,25.6,11.43ZM369.12,176.94v48.79s4.85,11.15,25.6,11.15,25.6-11.15,25.6-11.15v-48.79s-14.54,6.19-25.6,6.19-25.6-6.19-25.6-6.19Z"/>
      <path class="cls-4" d="M394.73,177.37c14.14,0,25.6-5.12,25.6-11.43s-11.46-11.43-25.6-11.43-25.6,5.12-25.6,11.43,11.46,11.43,25.6,11.43ZM369.12,176.94v48.79s4.85,11.15,25.6,11.15,25.6-11.15,25.6-11.15v-48.79s-14.54,6.19-25.6,6.19-25.6-6.19-25.6-6.19Z"/>
    </g>
  </g>
  <g>
    <g>
      <path class="cls-5" d="M394.73,665.64c14.14,0,25.6-5.12,25.6-11.43s-11.46-11.43-25.6-11.43-25.6,5.12-25.6,11.43,11.46,11.43,25.6,11.43ZM369.12,665.2v48.79s4.85,11.15,25.6,11.15,25.6-11.15,25.6-11.15v-48.79s-14.54,6.19-25.6,6.19-25.6-6.19-25.6-6.19Z"/>
      <path class="cls-4" d="M394.73,665.64c14.14,0,25.6-5.12,25.6-11.43s-11.46-11.43-25.6-11.43-25.6,5.12-25.6,11.43,11.46,11.43,25.6,11.43ZM369.12,665.2v48.79s4.85,11.15,25.6,11.15,25.6-11.15,25.6-11.15v-48.79s-14.54,6.19-25.6,6.19-25.6-6.19-25.6-6.19Z"/>
    </g>
    <g>
      <path class="cls-5" d="M291.33,607.14c-57,0-58,53-58,53h118s-3-53-60-53ZM293.33,576.14h-3v29h3v-29ZM307.33,590.14c3.71,1.49,15,3,15,3v-15s-6,3-13,0-14-2-14-2v14s7-2,12,0ZM359.33,664.14h-136v8h136v-8ZM359.33,734.14h-136v15h136v-15ZM211.33,753.14v10h160v-10h-160ZM249.33,729.14v-53h-17v53h17ZM283.33,729.14v-53h-17v53h17ZM317.33,729.14v-53h-17v53h17ZM352.33,729.14v-53h-17v53h17Z"/>
      <path class="cls-4" d="M291.33,607.14c-57,0-58,53-58,53h118s-3-53-60-53ZM293.33,576.14h-3v29h3v-29ZM307.33,590.14c3.71,1.49,15,3,15,3v-15s-6,3-13,0-14-2-14-2v14s7-2,12,0ZM359.33,664.14h-136v8h136v-8ZM359.33,734.14h-136v15h136v-15ZM211.33,753.14v10h160v-10h-160ZM249.33,729.14v-53h-17v53h17ZM283.33,729.14v-53h-17v53h17ZM317.33,729.14v-53h-17v53h17ZM352.33,729.14v-53h-17v53h17Z"/>
    </g>
  </g>
  <g>
    <g>
      <path class="cls-5" d="M870.77,666.64c14.14,0,25.6-5.12,25.6-11.43s-11.46-11.43-25.6-11.43-25.6,5.12-25.6,11.43,11.46,11.43,25.6,11.43ZM845.17,666.2v48.79s4.85,11.15,25.6,11.15,25.6-11.15,25.6-11.15v-48.79s-14.54,6.19-25.6,6.19-25.6-6.19-25.6-6.19Z"/>
      <path class="cls-4" d="M870.77,666.64c14.14,0,25.6-5.12,25.6-11.43s-11.46-11.43-25.6-11.43-25.6,5.12-25.6,11.43,11.46,11.43,25.6,11.43ZM845.17,666.2v48.79s4.85,11.15,25.6,11.15,25.6-11.15,25.6-11.15v-48.79s-14.54,6.19-25.6,6.19-25.6-6.19-25.6-6.19Z"/>
    </g>
    <g>
      <path class="cls-5" d="M1120.17,746.14c-1.1,0-2-.9-2-2v-95.57c0-4.11-3.33-7.43-7.43-7.43h-45.57l.98,102.98c.01,1.11-.89,2.02-2,2.02h-2.98c-1.1,0-2-.9-2-2v-130.57c0-4.11-3.33-7.43-7.43-7.43h-72.13c-4.11,0-7.43,3.33-7.43,7.43v130.57c0,1.1-.9,2-2,2h-2c-1.1,0-2-.9-2-2v-103h-44.57c-4.11,0-7.43,3.33-7.43,7.43v95.57c0,1.1-.9,2-2,2h-10v17h228v-17h-10ZM940.17,711.11c0,1.67-1.35,3.02-3.02,3.02h-6.95c-1.67,0-3.02-1.35-3.02-3.02v-7.95c0-1.67,1.35-3.02,3.02-3.02h6.95c1.67,0,3.02,1.35,3.02,3.02v7.95ZM940.17,691.11c0,1.67-1.35,3.02-3.02,3.02h-6.95c-1.67,0-3.02-1.35-3.02-3.02v-7.95c0-1.67,1.35-3.02,3.02-3.02h6.95c1.67,0,3.02,1.35,3.02,3.02v7.95ZM940.17,671.11c0,1.67-1.35,3.02-3.02,3.02h-6.95c-1.67,0-3.02-1.35-3.02-3.02v-7.95c0-1.67,1.35-3.02,3.02-3.02h6.95c1.67,0,3.02,1.35,3.02,3.02v7.95ZM959.17,711.11c0,1.67-1.35,3.02-3.02,3.02h-6.95c-1.67,0-3.02-1.35-3.02-3.02v-7.95c0-1.67,1.35-3.02,3.02-3.02h6.95c1.67,0,3.02,1.35,3.02,3.02v7.95ZM959.17,691.11c0,1.67-1.35,3.02-3.02,3.02h-6.95c-1.67,0-3.02-1.35-3.02-3.02v-7.95c0-1.67,1.35-3.02,3.02-3.02h6.95c1.67,0,3.02,1.35,3.02,3.02v7.95ZM959.17,671.11c0,1.67-1.35,3.02-3.02,3.02h-6.95c-1.67,0-3.02-1.35-3.02-3.02v-7.95c0-1.67,1.35-3.02,3.02-3.02h6.95c1.67,0,3.02,1.35,3.02,3.02v7.95ZM1036.17,742.68c0,3.01-2.44,5.46-5.46,5.46h-26.09c-3.01,0-5.46-2.44-5.46-5.46v-35.09c0-3.01,2.44-5.46,5.46-5.46h26.09c3.01,0,5.46,2.44,5.46,5.46v35.09ZM1017.17,674.14c-16.02,0-29-12.98-29-29s12.98-29,29-29,29,12.98,29,29-12.98,29-29,29ZM1091.17,711.11c0,1.67-1.35,3.02-3.02,3.02h-6.95c-1.67,0-3.02-1.35-3.02-3.02v-7.95c0-1.67,1.35-3.02,3.02-3.02h6.95c1.67,0,3.02,1.35,3.02,3.02v7.95ZM1091.17,691.11c0,1.67-1.35,3.02-3.02,3.02h-6.95c-1.67,0-3.02-1.35-3.02-3.02v-7.95c0-1.67,1.35-3.02,3.02-3.02h6.95c1.67,0,3.02,1.35,3.02,3.02v7.95ZM1091.17,671.11c0,1.67-1.35,3.02-3.02,3.02h-6.95c-1.67,0-3.02-1.35-3.02-3.02v-7.95c0-1.67,1.35-3.02,3.02-3.02h6.95c1.67,0,3.02,1.35,3.02,3.02v7.95ZM1109.17,711.11c0,1.67-1.35,3.02-3.02,3.02h-6.95c-1.67,0-3.02-1.35-3.02-3.02v-7.95c0-1.67,1.35-3.02,3.02-3.02h6.95c1.67,0,3.02,1.35,3.02,3.02v7.95ZM1109.17,691.11c0,1.67-1.35,3.02-3.02,3.02h-6.95c-1.67,0-3.02-1.35-3.02-3.02v-7.95c0-1.67,1.35-3.02,3.02-3.02h6.95c1.67,0,3.02,1.35,3.02,3.02v7.95ZM1109.17,671.11c0,1.67-1.35,3.02-3.02,3.02h-6.95c-1.67,0-3.02-1.35-3.02-3.02v-7.95c0-1.67,1.35-3.02,3.02-3.02h6.95c1.67,0,3.02,1.35,3.02,3.02v7.95ZM1023.17,625.14h-13v12h-12v13h12v12h13v-12h12v-13h-12v-12Z"/>
      <path class="cls-4" d="M1120.17,746.14c-1.1,0-2-.9-2-2v-95.57c0-4.11-3.33-7.43-7.43-7.43h-45.57l.98,102.98c.01,1.11-.89,2.02-2,2.02h-2.98c-1.1,0-2-.9-2-2v-130.57c0-4.11-3.33-7.43-7.43-7.43h-72.13c-4.11,0-7.43,3.33-7.43,7.43v130.57c0,1.1-.9,2-2,2h-2c-1.1,0-2-.9-2-2v-103h-44.57c-4.11,0-7.43,3.33-7.43,7.43v95.57c0,1.1-.9,2-2,2h-10v17h228v-17h-10ZM940.17,711.11c0,1.67-1.35,3.02-3.02,3.02h-6.95c-1.67,0-3.02-1.35-3.02-3.02v-7.95c0-1.67,1.35-3.02,3.02-3.02h6.95c1.67,0,3.02,1.35,3.02,3.02v7.95ZM940.17,691.11c0,1.67-1.35,3.02-3.02,3.02h-6.95c-1.67,0-3.02-1.35-3.02-3.02v-7.95c0-1.67,1.35-3.02,3.02-3.02h6.95c1.67,0,3.02,1.35,3.02,3.02v7.95ZM940.17,671.11c0,1.67-1.35,3.02-3.02,3.02h-6.95c-1.67,0-3.02-1.35-3.02-3.02v-7.95c0-1.67,1.35-3.02,3.02-3.02h6.95c1.67,0,3.02,1.35,3.02,3.02v7.95ZM959.17,711.11c0,1.67-1.35,3.02-3.02,3.02h-6.95c-1.67,0-3.02-1.35-3.02-3.02v-7.95c0-1.67,1.35-3.02,3.02-3.02h6.95c1.67,0,3.02,1.35,3.02,3.02v7.95ZM959.17,691.11c0,1.67-1.35,3.02-3.02,3.02h-6.95c-1.67,0-3.02-1.35-3.02-3.02v-7.95c0-1.67,1.35-3.02,3.02-3.02h6.95c1.67,0,3.02,1.35,3.02,3.02v7.95ZM959.17,671.11c0,1.67-1.35,3.02-3.02,3.02h-6.95c-1.67,0-3.02-1.35-3.02-3.02v-7.95c0-1.67,1.35-3.02,3.02-3.02h6.95c1.67,0,3.02,1.35,3.02,3.02v7.95ZM1036.17,742.68c0,3.01-2.44,5.46-5.46,5.46h-26.09c-3.01,0-5.46-2.44-5.46-5.46v-35.09c0-3.01,2.44-5.46,5.46-5.46h26.09c3.01,0,5.46,2.44,5.46,5.46v35.09ZM1017.17,674.14c-16.02,0-29-12.98-29-29s12.98-29,29-29,29,12.98,29,29-12.98,29-29,29ZM1091.17,711.11c0,1.67-1.35,3.02-3.02,3.02h-6.95c-1.67,0-3.02-1.35-3.02-3.02v-7.95c0-1.67,1.35-3.02,3.02-3.02h6.95c1.67,0,3.02,1.35,3.02,3.02v7.95ZM1091.17,691.11c0,1.67-1.35,3.02-3.02,3.02h-6.95c-1.67,0-3.02-1.35-3.02-3.02v-7.95c0-1.67,1.35-3.02,3.02-3.02h6.95c1.67,0,3.02,1.35,3.02,3.02v7.95ZM1091.17,671.11c0,1.67-1.35,3.02-3.02,3.02h-6.95c-1.67,0-3.02-1.35-3.02-3.02v-7.95c0-1.67,1.35-3.02,3.02-3.02h6.95c1.67,0,3.02,1.35,3.02,3.02v7.95ZM1109.17,711.11c0,1.67-1.35,3.02-3.02,3.02h-6.95c-1.67,0-3.02-1.35-3.02-3.02v-7.95c0-1.67,1.35-3.02,3.02-3.02h6.95c1.67,0,3.02,1.35,3.02,3.02v7.95ZM1109.17,691.11c0,1.67-1.35,3.02-3.02,3.02h-6.95c-1.67,0-3.02-1.35-3.02-3.02v-7.95c0-1.67,1.35-3.02,3.02-3.02h6.95c1.67,0,3.02,1.35,3.02,3.02v7.95ZM1109.17,671.11c0,1.67-1.35,3.02-3.02,3.02h-6.95c-1.67,0-3.02-1.35-3.02-3.02v-7.95c0-1.67,1.35-3.02,3.02-3.02h6.95c1.67,0,3.02,1.35,3.02,3.02v7.95ZM1023.17,625.14h-13v12h-12v13h12v12h13v-12h12v-13h-12v-12Z"/>
    </g>
  </g>
  <g>
    <line class="cls-5" x1="631.33" y1="218.14" x2="630.59" y2="317.02"/>
    <g>
      <line class="cls-3" x1="631.23" y1="232.26" x2="630.69" y2="302.9"/>
      <polygon class="cls-5" points="631.33 218.14 623.05 237.97 631.22 233.31 639.31 238.1 631.33 218.14"/>
      <polygon class="cls-5" points="630.59 317.02 622.61 297.06 630.7 301.84 638.87 297.18 630.59 317.02"/>
    </g>
  </g>
  <g>
    <line class="cls-3" x1="630.59" y1="597.38" x2="630.59" y2="668.02"/>
    <polygon class="cls-5" points="630.59 583.26 622.46 603.15 630.59 598.43 638.72 603.15 630.59 583.26"/>
    <polygon class="cls-5" points="630.59 682.14 622.46 662.24 630.59 666.96 638.72 662.24 630.59 682.14"/>
  </g>
  <g>
    <line class="cls-5" x1="465.7" y1="611.45" x2="535.71" y2="542.86"/>
    <g>
      <line class="cls-3" x1="475.79" y1="601.57" x2="525.62" y2="552.74"/>
      <polygon class="cls-5" points="465.7 611.45 485.61 603.33 476.54 600.83 474.23 591.72 465.7 611.45"/>
      <polygon class="cls-5" points="535.71 542.86 527.18 562.6 524.86 553.48 515.8 550.98 535.71 542.86"/>
    </g>
  </g>
  <g>
    <line class="cls-5" x1="721.31" y1="353.22" x2="791.31" y2="284.63"/>
    <g>
      <line class="cls-3" x1="731.39" y1="343.34" x2="781.22" y2="294.51"/>
      <polygon class="cls-5" points="721.31 353.22 741.21 345.1 732.15 342.6 729.83 333.49 721.31 353.22"/>
      <polygon class="cls-5" points="791.31 284.63 782.79 304.36 780.47 295.25 771.41 292.75 791.31 284.63"/>
    </g>
  </g>
  <g>
    <line class="cls-5" x1="540.33" y1="353.14" x2="470.33" y2="284.55"/>
    <g>
      <line class="cls-3" x1="530.25" y1="343.25" x2="480.42" y2="294.43"/>
      <polygon class="cls-5" points="540.33 353.14 531.81 333.4 529.49 342.52 520.43 345.02 540.33 353.14"/>
      <polygon class="cls-5" points="470.33 284.55 490.23 292.67 481.17 295.17 478.85 304.28 470.33 284.55"/>
    </g>
  </g>
  <g>
    <line class="cls-5" x1="795.34" y1="610.14" x2="725.33" y2="541.55"/>
    <g>
      <line class="cls-3" x1="785.25" y1="600.25" x2="735.42" y2="551.43"/>
      <polygon class="cls-5" points="795.34 610.14 786.81 590.4 784.5 599.52 775.43 602.02 795.34 610.14"/>
      <polygon class="cls-5" points="725.33 541.55 745.24 549.67 736.17 552.17 733.86 561.28 725.33 541.55"/>
    </g>
  </g>
  <g>
    <line class="cls-5" x1="398.33" y1="445.88" x2="496.33" y2="445.88"/>
    <g>
      <line class="cls-3" x1="412.45" y1="445.88" x2="482.21" y2="445.88"/>
      <polygon class="cls-5" points="398.33 445.88 418.23 454.01 413.51 445.88 418.23 437.75 398.33 445.88"/>
      <polygon class="cls-5" points="496.33 445.88 476.43 454.01 481.16 445.88 476.43 437.75 496.33 445.88"/>
    </g>
  </g>
  <g>
    <line class="cls-5" x1="764.33" y1="445.88" x2="862.33" y2="445.88"/>
    <g>
      <line class="cls-3" x1="778.45" y1="445.88" x2="848.21" y2="445.88"/>
      <polygon class="cls-5" points="764.33 445.88 784.23 454.01 779.51 445.88 784.23 437.75 764.33 445.88"/>
      <polygon class="cls-5" points="862.33 445.88 842.43 454.01 847.16 445.88 842.43 437.75 862.33 445.88"/>
    </g>
  </g>
  <g>
    <circle class="cls-1" cx="630.59" cy="40.2" r="26.06"/>
    <path class="cls-1" d="M630.59,60.11s-9.88-.33-20.42,10.21c-23.27,23.27-39.23,121.44-39.23,121.44h59.65s59.65,0,59.65,0c0,0-15.96-98.17-39.23-121.44-10.55-10.55-20.42-10.21-20.42-10.21Z"/>
  </g>
  <g>
    <circle class="cls-1" cx="630.59" cy="733.2" r="26.06"/>
    <path class="cls-1" d="M630.59,753.11s-9.88-.33-20.42,10.21c-23.27,23.27-39.23,121.44-39.23,121.44h59.65s59.65,0,59.65,0c0,0-15.96-98.17-39.23-121.44-10.55-10.55-20.42-10.21-20.42-10.21Z"/>
  </g>
  <g>
    <g>
      <circle class="cls-1" cx="957.99" cy="374.58" r="26.06"/>
      <path class="cls-1" d="M957.99,394.49s-9.88-.33-20.42,10.21c-23.27,23.27-39.23,121.44-39.23,121.44h59.65s59.65,0,59.65,0c0,0-15.96-98.17-39.23-121.44-10.55-10.55-20.42-10.21-20.42-10.21Z"/>
    </g>
    <g>
      <circle class="cls-1" cx="289.99" cy="373.2" r="26.06"/>
      <path class="cls-1" d="M289.99,393.11s-9.88-.33-20.42,10.21c-23.27,23.27-39.23,121.44-39.23,121.44h59.65s59.65,0,59.65,0c0,0-15.96-98.17-39.23-121.44-10.55-10.55-20.42-10.21-20.42-10.21Z"/>
    </g>
  </g>
  <g>
    <g>
      <path class="cls-5" d="M870.77,176.72c14.14,0,25.6-5.12,25.6-11.43s-11.46-11.43-25.6-11.43-25.6,5.12-25.6,11.43,11.46,11.43,25.6,11.43ZM845.17,176.29v48.79s4.85,11.15,25.6,11.15,25.6-11.15,25.6-11.15v-48.79s-14.54,6.19-25.6,6.19-25.6-6.19-25.6-6.19Z"/>
      <path class="cls-4" d="M870.77,176.72c14.14,0,25.6-5.12,25.6-11.43s-11.46-11.43-25.6-11.43-25.6,5.12-25.6,11.43,11.46,11.43,25.6,11.43ZM845.17,176.29v48.79s4.85,11.15,25.6,11.15,25.6-11.15,25.6-11.15v-48.79s-14.54,6.19-25.6,6.19-25.6-6.19-25.6-6.19Z"/>
    </g>
    <g>
      <path class="cls-5" d="M1059.33,242.14v-71c0-1.66,1.34-3,3-3h16l-83-50-80.96,50.01h14.96c1.66-.01,3,1.33,3,2.98v71c0,1.66-1.34,3-3,3h-10v6h45v-6h-9c-1.66,0-3-1.34-3-3v-71c0-1.66,1.34-3,3-3h31c1.66,0,3,1.34,3,3v71c0,1.66-1.34,3-3,3h-11v6h43v-6h-9c-1.66,0-3-1.34-3-3v-71c0-1.65,1.34-3,3-3h27.01c1.65,0,3,1.34,3,3v71.01c0,1.66-1.34,3-3,3h-10v6h46v-6h-10c-1.66,0-3-1.34-3-3ZM919.33,262.14h153v-7h-153v7ZM919.33,274.14h153v-9h-153v9Z"/>
      <path class="cls-4" d="M1059.33,242.14v-71c0-1.66,1.34-3,3-3h16l-83-50-80.96,50.01h14.96c1.66-.01,3,1.33,3,2.98v71c0,1.66-1.34,3-3,3h-10v6h45v-6h-9c-1.66,0-3-1.34-3-3v-71c0-1.66,1.34-3,3-3h31c1.66,0,3,1.34,3,3v71c0,1.66-1.34,3-3,3h-11v6h43v-6h-9c-1.66,0-3-1.34-3-3v-71c0-1.65,1.34-3,3-3h27.01c1.65,0,3,1.34,3,3v71.01c0,1.66-1.34,3-3,3h-10v6h46v-6h-10c-1.66,0-3-1.34-3-3ZM919.33,262.14h153v-7h-153v7ZM919.33,274.14h153v-9h-153v9Z"/>
    </g>
  </g>
  <circle class="cls-2" cx="630.59" cy="449.52" r="132.5"/>
</svg>