<?xml version="1.0" encoding="UTF-8"?>
<svg id="Layer_8" data-name="Layer 8" xmlns="http://www.w3.org/2000/svg" viewBox="0 0 1261.18 899.04">
  <defs>
    <style>
      .cls-1, .cls-2, .cls-3 {
        stroke: #000;
        stroke-miterlimit: 10;
      }

      .cls-2 {
        stroke-width: 2px;
      }

      .cls-2, .cls-3 {
        fill: none;
      }

      .cls-4 {
        stroke-width: 0px;
      }
    </style>
  </defs>
  <g>
    <path class="cls-1" d="M292.69,151.59V49.02h-34.16v96.24l-33.53,17.08v-68.95h-19.61v51.24l-33.53,15.18v-19.61l-55.03,27.83v63.26h203.06v-91.14l-27.2,11.43ZM154.42,214.21h-15.81v-23.41h15.81v23.41ZM189.87,214.21h-15.81v-23.41h15.81v23.41ZM226.27,214.21h-15.81v-23.41h15.81v23.41ZM264.23,214.21h-15.81v-23.41h15.81v23.41Z"/>
    <g>
      <path class="cls-4" d="M356.02,135.37c14.14,0,25.6-5.12,25.6-11.43s-11.46-11.43-25.6-11.43-25.6,5.12-25.6,11.43,11.46,11.43,25.6,11.43ZM330.42,134.94v48.79s4.85,11.15,25.6,11.15,25.6-11.15,25.6-11.15v-48.79s-14.54,6.19-25.6,6.19-25.6-6.19-25.6-6.19Z"/>
      <path class="cls-3" d="M356.02,135.37c14.14,0,25.6-5.12,25.6-11.43s-11.46-11.43-25.6-11.43-25.6,5.12-25.6,11.43,11.46,11.43,25.6,11.43ZM330.42,134.94v48.79s4.85,11.15,25.6,11.15,25.6-11.15,25.6-11.15v-48.79s-14.54,6.19-25.6,6.19-25.6-6.19-25.6-6.19Z"/>
    </g>
    <g>
      <g>
        <line class="cls-4" x1="478.28" y1="75.46" x2="398.28" y2="111.46"/>
        <g>
          <line class="cls-2" x1="465.4" y1="81.26" x2="411.16" y2="105.67"/>
          <polygon class="cls-4" points="478.28 75.46 456.8 76.21 464.44 81.69 463.47 91.04 478.28 75.46"/>
          <polygon class="cls-4" points="398.28 111.46 413.09 95.88 412.12 105.23 419.76 110.71 398.28 111.46"/>
        </g>
      </g>
      <g>
        <line class="cls-4" x1="478.28" y1="244.46" x2="398.28" y2="208.46"/>
        <g>
          <line class="cls-2" x1="465.4" y1="238.67" x2="411.16" y2="214.26"/>
          <polygon class="cls-4" points="478.28 244.46 463.47 228.88 464.44 238.23 456.8 243.71 478.28 244.46"/>
          <polygon class="cls-4" points="398.28 208.46 419.76 209.21 412.12 214.69 413.09 224.04 398.28 208.46"/>
        </g>
      </g>
      <g>
        <line class="cls-2" x1="472.16" y1="159.46" x2="412.4" y2="159.46"/>
        <polygon class="cls-4" points="486.28 159.46 466.38 151.33 471.1 159.46 466.38 167.59 486.28 159.46"/>
        <polygon class="cls-4" points="398.28 159.46 418.18 151.33 413.46 159.46 418.18 167.59 398.28 159.46"/>
      </g>
      <g>
        <circle class="cls-1" cx="513.57" cy="49.93" r="9.49"/>
        <path class="cls-1" d="M513.57,57.17s3.59-.12,7.43,3.72c8.47,8.47,14.28,44.2,14.28,44.2h-21.71s-21.71,0-21.71,0c0,0,5.81-35.73,14.28-44.2,3.84-3.84,7.43-3.72,7.43-3.72Z"/>
      </g>
      <g>
        <circle class="cls-1" cx="513.57" cy="133.3" r="9.49"/>
        <path class="cls-1" d="M513.57,140.55s3.59-.12,7.43,3.72c8.47,8.47,14.28,44.2,14.28,44.2h-21.71s-21.71,0-21.71,0c0,0,5.81-35.73,14.28-44.2,3.84-3.84,7.43-3.72,7.43-3.72Z"/>
      </g>
      <g>
        <circle class="cls-1" cx="513.57" cy="217.3" r="9.49"/>
        <path class="cls-1" d="M513.57,224.55s3.59-.12,7.43,3.72c8.47,8.47,14.28,44.2,14.28,44.2h-21.71s-21.71,0-21.71,0c0,0,5.81-35.73,14.28-44.2,3.84-3.84,7.43-3.72,7.43-3.72Z"/>
      </g>
    </g>
  </g>
  <g>
    <g>
      <path class="cls-1" d="M215.71,468.17l-1.51-.5-.39-1.54c-4.41-17.22-19.91-29.24-37.71-29.24s-32.26,11.31-37.23,27.51l-.7,2.29-2.38-.25c-1.36-.14-2.74-.21-4.11-.21-21.47,0-38.94,17.47-38.94,38.94s17.47,38.94,38.94,38.94h71.83c21.47,0,38.94-17.47,38.94-38.94,0-16.86-10.74-31.72-26.73-36.99Z"/>
      <path class="cls-1" d="M85.61,505.15c0-.53.02-1.06.04-1.59-19.65-3.2-31.07-10.39-31.07-14.78,0-1.4,1.17-3.08,3.38-4.83,8.28,3.9,18.65,6.59,29.57,8.04,3.34-11.18,10.81-20.58,20.64-26.44-.5,0-1,.01-1.51.01-32.31,0-52.08-10.63-52.08-16.42,0-1.4,1.17-3.08,3.38-4.82,13.05,6.14,31.26,9.3,48.7,9.3,10.54,0,21.35-1.16,31.15-3.43,2.47-3.69,5.48-7.04,8.95-9.9,7.2-5.95,16.07-9.56,25.34-10.37.62-1.29,1.08-2.63,1.36-4.02v-16.38c0-4.96-2.09-9.35-5.7-13.17,2.93-2.99,4.93-6.35,5.7-10.07v-16.38c0-20.22-34.42-31.13-66.8-31.13s-66.8,10.91-66.8,31.13v16.04s.05.34.05.34c.77,3.71,2.75,7.06,5.66,10.04-3.62,3.82-5.71,8.23-5.71,13.2v16.04s.05.34.05.34c.77,3.71,2.75,7.06,5.66,10.04-3.62,3.83-5.71,8.23-5.71,13.2v16.04s.05.34.05.34c.77,3.71,2.75,7.06,5.66,10.04-3.62,3.82-5.71,8.23-5.71,13.2v16.04s.05.34.05.34c3.26,15.78,28.26,25.04,54.62,27.22-5.61-7.63-8.93-17.04-8.93-27.22ZM106.67,353.49c32.3,0,52.08,10.63,52.08,16.41s-19.77,16.42-52.08,16.42-52.08-10.63-52.08-16.42c0-5.79,19.78-16.41,52.08-16.41ZM57.96,404.7c13.05,6.14,31.26,9.3,48.7,9.3s35.66-3.15,48.71-9.29c2.19,1.74,3.36,3.42,3.36,4.81,0,5.79-19.77,16.42-52.08,16.42s-52.08-10.63-52.08-16.42c0-1.4,1.17-3.08,3.38-4.82Z"/>
      <path class="cls-1" d="M94.37,550.9c-5.62,1.95-11.66,1.6-17.02-.99-5.35-2.59-9.38-7.11-11.33-12.73-1.05-3.03-4.36-4.63-7.39-3.58-3.03,1.05-4.63,4.36-3.58,7.39,2.97,8.55,9.1,15.43,17.25,19.37,4.67,2.26,9.69,3.4,14.73,3.4,3.75,0,7.52-.63,11.16-1.9,3.03-1.05,4.63-4.36,3.58-7.39-1.05-3.03-4.36-4.63-7.39-3.58Z"/>
      <path class="cls-1" d="M186.72,418.08c12.28.1,22.19,10.17,22.08,22.45-.03,3.21,2.55,5.83,5.76,5.86h.05c3.19,0,5.78-2.57,5.81-5.76.15-18.68-14.92-34.01-33.61-34.16h-.05c-3.18,0-5.78,2.57-5.81,5.76-.03,3.21,2.55,5.83,5.76,5.86Z"/>
    </g>
    <g>
      <g>
        <line class="cls-4" x1="350.28" y1="369.44" x2="270.28" y2="405.44"/>
        <g>
          <line class="cls-2" x1="337.4" y1="375.23" x2="283.16" y2="399.64"/>
          <polygon class="cls-4" points="350.28 369.44 328.8 370.19 336.44 375.67 335.47 385.02 350.28 369.44"/>
          <polygon class="cls-4" points="270.28 405.44 285.09 389.86 284.12 399.21 291.76 404.69 270.28 405.44"/>
        </g>
      </g>
      <g>
        <line class="cls-4" x1="350.28" y1="538.44" x2="270.28" y2="502.44"/>
        <g>
          <line class="cls-2" x1="337.4" y1="532.64" x2="283.16" y2="508.23"/>
          <polygon class="cls-4" points="350.28 538.44 335.47 522.86 336.44 532.21 328.8 537.69 350.28 538.44"/>
          <polygon class="cls-4" points="270.28 502.44 291.76 503.19 284.12 508.67 285.09 518.02 270.28 502.44"/>
        </g>
      </g>
      <g>
        <line class="cls-2" x1="344.16" y1="453.44" x2="284.4" y2="453.44"/>
        <polygon class="cls-4" points="358.28 453.44 338.38 445.31 343.1 453.44 338.38 461.57 358.28 453.44"/>
        <polygon class="cls-4" points="270.28 453.44 290.18 445.31 285.46 453.44 290.18 461.57 270.28 453.44"/>
      </g>
      <g>
        <circle class="cls-1" cx="385.57" cy="343.9" r="9.49"/>
        <path class="cls-1" d="M385.57,351.15s3.59-.12,7.43,3.72c8.47,8.47,14.28,44.2,14.28,44.2h-21.71s-21.71,0-21.71,0c0,0,5.81-35.73,14.28-44.2,3.84-3.84,7.43-3.72,7.43-3.72Z"/>
      </g>
      <g>
        <circle class="cls-1" cx="385.57" cy="427.28" r="9.49"/>
        <path class="cls-1" d="M385.57,434.52s3.59-.12,7.43,3.72c8.47,8.47,14.28,44.2,14.28,44.2h-21.71s-21.71,0-21.71,0c0,0,5.81-35.73,14.28-44.2,3.84-3.84,7.43-3.72,7.43-3.72Z"/>
      </g>
      <g>
        <circle class="cls-1" cx="385.57" cy="511.28" r="9.49"/>
        <path class="cls-1" d="M385.57,518.52s3.59-.12,7.43,3.72c8.47,8.47,14.28,44.2,14.28,44.2h-21.71s-21.71,0-21.71,0c0,0,5.81-35.73,14.28-44.2,3.84-3.84,7.43-3.72,7.43-3.72Z"/>
      </g>
    </g>
  </g>
  <g>
    <g>
      <path class="cls-4" d="M358.26,728.27c14.14,0,25.6-5.12,25.6-11.43s-11.46-11.43-25.6-11.43-25.6,5.12-25.6,11.43,11.46,11.43,25.6,11.43ZM332.66,727.83v48.79s4.85,11.15,25.6,11.15,25.6-11.15,25.6-11.15v-48.79s-14.54,6.19-25.6,6.19-25.6-6.19-25.6-6.19Z"/>
      <path class="cls-3" d="M358.26,728.27c14.14,0,25.6-5.12,25.6-11.43s-11.46-11.43-25.6-11.43-25.6,5.12-25.6,11.43,11.46,11.43,25.6,11.43ZM332.66,727.83v48.79s4.85,11.15,25.6,11.15,25.6-11.15,25.6-11.15v-48.79s-14.54,6.19-25.6,6.19-25.6-6.19-25.6-6.19Z"/>
    </g>
    <g>
      <path class="cls-4" d="M254.87,669.77c-57,0-58,53-58,53h118s-3-53-60-53ZM256.87,638.77h-3v29h3v-29ZM270.87,652.77c3.71,1.49,15,3,15,3v-15s-6,3-13,0-14-2-14-2v14s7-2,12,0ZM322.87,726.77h-136v8h136v-8ZM322.87,796.77h-136v15h136v-15ZM174.87,815.77v10h160v-10h-160ZM212.87,791.77v-53h-17v53h17ZM246.87,791.77v-53h-17v53h17ZM280.87,791.77v-53h-17v53h17ZM315.87,791.77v-53h-17v53h17Z"/>
      <path class="cls-3" d="M254.87,669.77c-57,0-58,53-58,53h118s-3-53-60-53ZM256.87,638.77h-3v29h3v-29ZM270.87,652.77c3.71,1.49,15,3,15,3v-15s-6,3-13,0-14-2-14-2v14s7-2,12,0ZM322.87,726.77h-136v8h136v-8ZM322.87,796.77h-136v15h136v-15ZM174.87,815.77v10h160v-10h-160ZM212.87,791.77v-53h-17v53h17ZM246.87,791.77v-53h-17v53h17ZM280.87,791.77v-53h-17v53h17ZM315.87,791.77v-53h-17v53h17Z"/>
    </g>
    <g>
      <g>
        <line class="cls-4" x1="478.28" y1="669.44" x2="398.28" y2="705.44"/>
        <g>
          <line class="cls-2" x1="465.4" y1="675.23" x2="411.16" y2="699.64"/>
          <polygon class="cls-4" points="478.28 669.44 456.8 670.19 464.44 675.67 463.47 685.02 478.28 669.44"/>
          <polygon class="cls-4" points="398.28 705.44 413.09 689.86 412.12 699.21 419.76 704.69 398.28 705.44"/>
        </g>
      </g>
      <g>
        <line class="cls-4" x1="478.28" y1="838.44" x2="398.28" y2="802.44"/>
        <g>
          <line class="cls-2" x1="465.4" y1="832.64" x2="411.16" y2="808.23"/>
          <polygon class="cls-4" points="478.28 838.44 463.47 822.86 464.44 832.21 456.8 837.69 478.28 838.44"/>
          <polygon class="cls-4" points="398.28 802.44 419.76 803.19 412.12 808.67 413.09 818.02 398.28 802.44"/>
        </g>
      </g>
      <g>
        <line class="cls-2" x1="472.16" y1="753.44" x2="412.4" y2="753.44"/>
        <polygon class="cls-4" points="486.28 753.44 466.38 745.31 471.1 753.44 466.38 761.57 486.28 753.44"/>
        <polygon class="cls-4" points="398.28 753.44 418.18 745.31 413.46 753.44 418.18 761.57 398.28 753.44"/>
      </g>
      <g>
        <circle class="cls-1" cx="513.57" cy="643.9" r="9.49"/>
        <path class="cls-1" d="M513.57,651.15s3.59-.12,7.43,3.72c8.47,8.47,14.28,44.2,14.28,44.2h-21.71s-21.71,0-21.71,0c0,0,5.81-35.73,14.28-44.2,3.84-3.84,7.43-3.72,7.43-3.72Z"/>
      </g>
      <g>
        <circle class="cls-1" cx="513.57" cy="727.28" r="9.49"/>
        <path class="cls-1" d="M513.57,734.52s3.59-.12,7.43,3.72c8.47,8.47,14.28,44.2,14.28,44.2h-21.71s-21.71,0-21.71,0c0,0,5.81-35.73,14.28-44.2,3.84-3.84,7.43-3.72,7.43-3.72Z"/>
      </g>
      <g>
        <circle class="cls-1" cx="513.57" cy="811.28" r="9.49"/>
        <path class="cls-1" d="M513.57,818.52s3.59-.12,7.43,3.72c8.47,8.47,14.28,44.2,14.28,44.2h-21.71s-21.71,0-21.71,0c0,0,5.81-35.73,14.28-44.2,3.84-3.84,7.43-3.72,7.43-3.72Z"/>
      </g>
    </g>
  </g>
  <g>
    <g>
      <path class="cls-4" d="M906.47,729.24c14.14,0,25.6-5.12,25.6-11.43s-11.46-11.43-25.6-11.43-25.6,5.12-25.6,11.43,11.46,11.43,25.6,11.43ZM880.87,728.81v48.79s4.85,11.15,25.6,11.15,25.6-11.15,25.6-11.15v-48.79s-14.54,6.19-25.6,6.19-25.6-6.19-25.6-6.19Z"/>
      <path class="cls-3" d="M906.47,729.24c14.14,0,25.6-5.12,25.6-11.43s-11.46-11.43-25.6-11.43-25.6,5.12-25.6,11.43,11.46,11.43,25.6,11.43ZM880.87,728.81v48.79s4.85,11.15,25.6,11.15,25.6-11.15,25.6-11.15v-48.79s-14.54,6.19-25.6,6.19-25.6-6.19-25.6-6.19Z"/>
    </g>
    <g>
      <path class="cls-4" d="M1155.87,808.74c-1.1,0-2-.9-2-2v-95.57c0-4.11-3.33-7.43-7.43-7.43h-45.57l.98,102.98c.01,1.11-.89,2.02-2,2.02h-2.98c-1.1,0-2-.9-2-2v-130.57c0-4.11-3.33-7.43-7.43-7.43h-72.13c-4.11,0-7.43,3.33-7.43,7.43v130.57c0,1.1-.9,2-2,2h-2c-1.1,0-2-.9-2-2v-103h-44.57c-4.11,0-7.43,3.33-7.43,7.43v95.57c0,1.1-.9,2-2,2h-10v17h228v-17h-10ZM975.87,773.72c0,1.67-1.35,3.02-3.02,3.02h-6.95c-1.67,0-3.02-1.35-3.02-3.02v-7.95c0-1.67,1.35-3.02,3.02-3.02h6.95c1.67,0,3.02,1.35,3.02,3.02v7.95ZM975.87,753.72c0,1.67-1.35,3.02-3.02,3.02h-6.95c-1.67,0-3.02-1.35-3.02-3.02v-7.95c0-1.67,1.35-3.02,3.02-3.02h6.95c1.67,0,3.02,1.35,3.02,3.02v7.95ZM975.87,733.72c0,1.67-1.35,3.02-3.02,3.02h-6.95c-1.67,0-3.02-1.35-3.02-3.02v-7.95c0-1.67,1.35-3.02,3.02-3.02h6.95c1.67,0,3.02,1.35,3.02,3.02v7.95ZM994.87,773.72c0,1.67-1.35,3.02-3.02,3.02h-6.95c-1.67,0-3.02-1.35-3.02-3.02v-7.95c0-1.67,1.35-3.02,3.02-3.02h6.95c1.67,0,3.02,1.35,3.02,3.02v7.95ZM994.87,753.72c0,1.67-1.35,3.02-3.02,3.02h-6.95c-1.67,0-3.02-1.35-3.02-3.02v-7.95c0-1.67,1.35-3.02,3.02-3.02h6.95c1.67,0,3.02,1.35,3.02,3.02v7.95ZM994.87,733.72c0,1.67-1.35,3.02-3.02,3.02h-6.95c-1.67,0-3.02-1.35-3.02-3.02v-7.95c0-1.67,1.35-3.02,3.02-3.02h6.95c1.67,0,3.02,1.35,3.02,3.02v7.95ZM1071.87,805.29c0,3.01-2.44,5.46-5.46,5.46h-26.09c-3.01,0-5.46-2.44-5.46-5.46v-35.09c0-3.01,2.44-5.46,5.46-5.46h26.09c3.01,0,5.46,2.44,5.46,5.46v35.09ZM1052.87,736.74c-16.02,0-29-12.98-29-29s12.98-29,29-29,29,12.98,29,29-12.98,29-29,29ZM1126.87,773.72c0,1.67-1.35,3.02-3.02,3.02h-6.95c-1.67,0-3.02-1.35-3.02-3.02v-7.95c0-1.67,1.35-3.02,3.02-3.02h6.95c1.67,0,3.02,1.35,3.02,3.02v7.95ZM1126.87,753.72c0,1.67-1.35,3.02-3.02,3.02h-6.95c-1.67,0-3.02-1.35-3.02-3.02v-7.95c0-1.67,1.35-3.02,3.02-3.02h6.95c1.67,0,3.02,1.35,3.02,3.02v7.95ZM1126.87,733.72c0,1.67-1.35,3.02-3.02,3.02h-6.95c-1.67,0-3.02-1.35-3.02-3.02v-7.95c0-1.67,1.35-3.02,3.02-3.02h6.95c1.67,0,3.02,1.35,3.02,3.02v7.95ZM1144.87,773.72c0,1.67-1.35,3.02-3.02,3.02h-6.95c-1.67,0-3.02-1.35-3.02-3.02v-7.95c0-1.67,1.35-3.02,3.02-3.02h6.95c1.67,0,3.02,1.35,3.02,3.02v7.95ZM1144.87,753.72c0,1.67-1.35,3.02-3.02,3.02h-6.95c-1.67,0-3.02-1.35-3.02-3.02v-7.95c0-1.67,1.35-3.02,3.02-3.02h6.95c1.67,0,3.02,1.35,3.02,3.02v7.95ZM1144.87,733.72c0,1.67-1.35,3.02-3.02,3.02h-6.95c-1.67,0-3.02-1.35-3.02-3.02v-7.95c0-1.67,1.35-3.02,3.02-3.02h6.95c1.67,0,3.02,1.35,3.02,3.02v7.95ZM1058.87,687.74h-13v12h-12v13h12v12h13v-12h12v-13h-12v-12Z"/>
      <path class="cls-3" d="M1155.87,808.74c-1.1,0-2-.9-2-2v-95.57c0-4.11-3.33-7.43-7.43-7.43h-45.57l.98,102.98c.01,1.11-.89,2.02-2,2.02h-2.98c-1.1,0-2-.9-2-2v-130.57c0-4.11-3.33-7.43-7.43-7.43h-72.13c-4.11,0-7.43,3.33-7.43,7.43v130.57c0,1.1-.9,2-2,2h-2c-1.1,0-2-.9-2-2v-103h-44.57c-4.11,0-7.43,3.33-7.43,7.43v95.57c0,1.1-.9,2-2,2h-10v17h228v-17h-10ZM975.87,773.72c0,1.67-1.35,3.02-3.02,3.02h-6.95c-1.67,0-3.02-1.35-3.02-3.02v-7.95c0-1.67,1.35-3.02,3.02-3.02h6.95c1.67,0,3.02,1.35,3.02,3.02v7.95ZM975.87,753.72c0,1.67-1.35,3.02-3.02,3.02h-6.95c-1.67,0-3.02-1.35-3.02-3.02v-7.95c0-1.67,1.35-3.02,3.02-3.02h6.95c1.67,0,3.02,1.35,3.02,3.02v7.95ZM975.87,733.72c0,1.67-1.35,3.02-3.02,3.02h-6.95c-1.67,0-3.02-1.35-3.02-3.02v-7.95c0-1.67,1.35-3.02,3.02-3.02h6.95c1.67,0,3.02,1.35,3.02,3.02v7.95ZM994.87,773.72c0,1.67-1.35,3.02-3.02,3.02h-6.95c-1.67,0-3.02-1.35-3.02-3.02v-7.95c0-1.67,1.35-3.02,3.02-3.02h6.95c1.67,0,3.02,1.35,3.02,3.02v7.95ZM994.87,753.72c0,1.67-1.35,3.02-3.02,3.02h-6.95c-1.67,0-3.02-1.35-3.02-3.02v-7.95c0-1.67,1.35-3.02,3.02-3.02h6.95c1.67,0,3.02,1.35,3.02,3.02v7.95ZM994.87,733.72c0,1.67-1.35,3.02-3.02,3.02h-6.95c-1.67,0-3.02-1.35-3.02-3.02v-7.95c0-1.67,1.35-3.02,3.02-3.02h6.95c1.67,0,3.02,1.35,3.02,3.02v7.95ZM1071.87,805.29c0,3.01-2.44,5.46-5.46,5.46h-26.09c-3.01,0-5.46-2.44-5.46-5.46v-35.09c0-3.01,2.44-5.46,5.46-5.46h26.09c3.01,0,5.46,2.44,5.46,5.46v35.09ZM1052.87,736.74c-16.02,0-29-12.98-29-29s12.98-29,29-29,29,12.98,29,29-12.98,29-29,29ZM1126.87,773.72c0,1.67-1.35,3.02-3.02,3.02h-6.95c-1.67,0-3.02-1.35-3.02-3.02v-7.95c0-1.67,1.35-3.02,3.02-3.02h6.95c1.67,0,3.02,1.35,3.02,3.02v7.95ZM1126.87,753.72c0,1.67-1.35,3.02-3.02,3.02h-6.95c-1.67,0-3.02-1.35-3.02-3.02v-7.95c0-1.67,1.35-3.02,3.02-3.02h6.95c1.67,0,3.02,1.35,3.02,3.02v7.95ZM1126.87,733.72c0,1.67-1.35,3.02-3.02,3.02h-6.95c-1.67,0-3.02-1.35-3.02-3.02v-7.95c0-1.67,1.35-3.02,3.02-3.02h6.95c1.67,0,3.02,1.35,3.02,3.02v7.95ZM1144.87,773.72c0,1.67-1.35,3.02-3.02,3.02h-6.95c-1.67,0-3.02-1.35-3.02-3.02v-7.95c0-1.67,1.35-3.02,3.02-3.02h6.95c1.67,0,3.02,1.35,3.02,3.02v7.95ZM1144.87,753.72c0,1.67-1.35,3.02-3.02,3.02h-6.95c-1.67,0-3.02-1.35-3.02-3.02v-7.95c0-1.67,1.35-3.02,3.02-3.02h6.95c1.67,0,3.02,1.35,3.02,3.02v7.95ZM1144.87,733.72c0,1.67-1.35,3.02-3.02,3.02h-6.95c-1.67,0-3.02-1.35-3.02-3.02v-7.95c0-1.67,1.35-3.02,3.02-3.02h6.95c1.67,0,3.02,1.35,3.02,3.02v7.95ZM1058.87,687.74h-13v12h-12v13h12v12h13v-12h12v-13h-12v-12Z"/>
    </g>
    <g>
      <g>
        <line class="cls-4" x1="789.28" y1="669.44" x2="869.28" y2="705.44"/>
        <g>
          <line class="cls-2" x1="802.16" y1="675.23" x2="856.4" y2="699.64"/>
          <polygon class="cls-4" points="789.28 669.44 804.09 685.02 803.12 675.67 810.76 670.19 789.28 669.44"/>
          <polygon class="cls-4" points="869.28 705.44 847.8 704.69 855.44 699.21 854.47 689.86 869.28 705.44"/>
        </g>
      </g>
      <g>
        <line class="cls-4" x1="789.28" y1="838.44" x2="869.28" y2="802.44"/>
        <g>
          <line class="cls-2" x1="802.16" y1="832.64" x2="856.4" y2="808.23"/>
          <polygon class="cls-4" points="789.28 838.44 810.76 837.69 803.12 832.21 804.09 822.86 789.28 838.44"/>
          <polygon class="cls-4" points="869.28 802.44 854.47 818.02 855.44 808.67 847.8 803.19 869.28 802.44"/>
        </g>
      </g>
      <g>
        <line class="cls-4" x1="781.28" y1="753.44" x2="869.28" y2="753.44"/>
        <g>
          <line class="cls-2" x1="795.4" y1="753.44" x2="855.16" y2="753.44"/>
          <polygon class="cls-4" points="781.28 753.44 801.18 761.57 796.46 753.44 801.18 745.31 781.28 753.44"/>
          <polygon class="cls-4" points="869.28 753.44 849.38 761.57 854.1 753.44 849.38 745.31 869.28 753.44"/>
        </g>
      </g>
      <g>
        <circle class="cls-1" cx="753.99" cy="643.9" r="9.49"/>
        <path class="cls-1" d="M753.99,651.15s-3.59-.12-7.43,3.72c-8.47,8.47-14.28,44.2-14.28,44.2h43.42s-5.81-35.73-14.28-44.2c-3.84-3.84-7.43-3.72-7.43-3.72Z"/>
      </g>
      <g>
        <circle class="cls-1" cx="753.99" cy="727.28" r="9.49"/>
        <path class="cls-1" d="M753.99,734.52s-3.59-.12-7.43,3.72c-8.47,8.47-14.28,44.2-14.28,44.2h21.71s21.71,0,21.71,0c0,0-5.81-35.73-14.28-44.2-3.84-3.84-7.43-3.72-7.43-3.72Z"/>
      </g>
      <g>
        <circle class="cls-1" cx="753.99" cy="811.28" r="9.49"/>
        <path class="cls-1" d="M753.99,818.52s-3.59-.12-7.43,3.72c-8.47,8.47-14.28,44.2-14.28,44.2h21.71s21.71,0,21.71,0c0,0-5.81-35.73-14.28-44.2-3.84-3.84-7.43-3.72-7.43-3.72Z"/>
      </g>
    </g>
  </g>
  <g>
    <g>
      <path class="cls-1" d="M1177.13,463.17l-1.51-.5-.39-1.54c-4.41-17.22-19.91-29.24-37.71-29.24s-32.26,11.31-37.23,27.51l-.7,2.29-2.38-.25c-1.36-.14-2.74-.21-4.11-.21-21.47,0-38.94,17.47-38.94,38.94s17.47,38.94,38.94,38.94h71.83c21.47,0,38.94-17.47,38.94-38.94,0-16.86-10.74-31.72-26.73-36.99Z"/>
      <path class="cls-1" d="M1047.04,500.15c0-.53.02-1.06.04-1.59-19.65-3.2-31.07-10.39-31.07-14.78,0-1.4,1.17-3.08,3.38-4.83,8.28,3.9,18.65,6.59,29.57,8.04,3.34-11.18,10.81-20.58,20.64-26.44-.5,0-1,.01-1.51.01-32.31,0-52.08-10.63-52.08-16.42,0-1.4,1.17-3.08,3.38-4.82,13.05,6.14,31.26,9.3,48.7,9.3,10.54,0,21.35-1.16,31.15-3.43,2.47-3.69,5.48-7.04,8.95-9.9,7.2-5.95,16.07-9.56,25.34-10.37.62-1.29,1.08-2.63,1.36-4.02v-16.38c0-4.96-2.09-9.35-5.7-13.17,2.93-2.99,4.93-6.35,5.7-10.07v-16.38c0-20.22-34.42-31.13-66.8-31.13s-66.8,10.91-66.8,31.13v16.04s.05.34.05.34c.77,3.71,2.75,7.06,5.66,10.04-3.62,3.82-5.71,8.23-5.71,13.2v16.04s.05.34.05.34c.77,3.71,2.75,7.06,5.66,10.04-3.62,3.83-5.71,8.23-5.71,13.2v16.04s.05.34.05.34c.77,3.71,2.75,7.06,5.66,10.04-3.62,3.82-5.71,8.23-5.71,13.2v16.04s.05.34.05.34c3.26,15.78,28.26,25.04,54.62,27.22-5.61-7.63-8.93-17.04-8.93-27.22ZM1068.09,348.49c32.3,0,52.08,10.63,52.08,16.41s-19.77,16.42-52.08,16.42-52.08-10.63-52.08-16.42c0-5.79,19.78-16.41,52.08-16.41ZM1019.39,399.7c13.05,6.14,31.26,9.3,48.7,9.3s35.66-3.15,48.71-9.29c2.19,1.74,3.36,3.42,3.36,4.81,0,5.79-19.77,16.42-52.08,16.42s-52.08-10.63-52.08-16.42c0-1.4,1.17-3.08,3.38-4.82Z"/>
      <path class="cls-1" d="M1055.79,545.9c-5.62,1.95-11.66,1.6-17.02-.99-5.35-2.59-9.38-7.11-11.33-12.73-1.05-3.03-4.36-4.63-7.39-3.58-3.03,1.05-4.63,4.36-3.58,7.39,2.97,8.55,9.1,15.43,17.25,19.37,4.67,2.26,9.69,3.4,14.73,3.4,3.75,0,7.52-.63,11.16-1.9,3.03-1.05,4.63-4.36,3.58-7.39-1.05-3.03-4.36-4.63-7.39-3.58Z"/>
      <path class="cls-1" d="M1148.14,413.08c12.28.1,22.19,10.17,22.08,22.45-.03,3.21,2.55,5.83,5.76,5.86h.05c3.19,0,5.78-2.57,5.81-5.76.15-18.68-14.92-34.01-33.61-34.16h-.05c-3.18,0-5.78,2.57-5.81,5.76-.03,3.21,2.55,5.83,5.76,5.86Z"/>
    </g>
    <g>
      <g>
        <line class="cls-4" x1="893.28" y1="369.44" x2="973.28" y2="405.44"/>
        <g>
          <line class="cls-2" x1="906.16" y1="375.23" x2="960.4" y2="399.64"/>
          <polygon class="cls-4" points="893.28 369.44 908.09 385.02 907.12 375.67 914.76 370.19 893.28 369.44"/>
          <polygon class="cls-4" points="973.28 405.44 951.8 404.69 959.44 399.21 958.47 389.86 973.28 405.44"/>
        </g>
      </g>
      <g>
        <line class="cls-4" x1="893.28" y1="538.44" x2="973.28" y2="502.44"/>
        <g>
          <line class="cls-2" x1="906.16" y1="532.64" x2="960.4" y2="508.23"/>
          <polygon class="cls-4" points="893.28 538.44 914.76 537.69 907.12 532.21 908.09 522.86 893.28 538.44"/>
          <polygon class="cls-4" points="973.28 502.44 958.47 518.02 959.44 508.67 951.8 503.19 973.28 502.44"/>
        </g>
      </g>
      <g>
        <line class="cls-4" x1="885.28" y1="453.44" x2="973.28" y2="453.44"/>
        <g>
          <line class="cls-2" x1="899.4" y1="453.44" x2="959.16" y2="453.44"/>
          <polygon class="cls-4" points="885.28 453.44 905.18 461.57 900.46 453.44 905.18 445.31 885.28 453.44"/>
          <polygon class="cls-4" points="973.28 453.44 953.38 461.57 958.1 453.44 953.38 445.31 973.28 453.44"/>
        </g>
      </g>
      <g>
        <circle class="cls-1" cx="857.99" cy="343.9" r="9.49"/>
        <path class="cls-1" d="M857.99,351.15s-3.59-.12-7.43,3.72c-8.47,8.47-14.28,44.2-14.28,44.2h43.42s-5.81-35.73-14.28-44.2c-3.84-3.84-7.43-3.72-7.43-3.72Z"/>
      </g>
      <g>
        <circle class="cls-1" cx="857.99" cy="427.28" r="9.49"/>
        <path class="cls-1" d="M857.99,434.52s-3.59-.12-7.43,3.72c-8.47,8.47-14.28,44.2-14.28,44.2h21.71s21.71,0,21.71,0c0,0-5.81-35.73-14.28-44.2-3.84-3.84-7.43-3.72-7.43-3.72Z"/>
      </g>
      <g>
        <circle class="cls-1" cx="857.99" cy="511.28" r="9.49"/>
        <path class="cls-1" d="M857.99,518.52s-3.59-.12-7.43,3.72c-8.47,8.47-14.28,44.2-14.28,44.2h21.71s21.71,0,21.71,0c0,0-5.81-35.73-14.28-44.2-3.84-3.84-7.43-3.72-7.43-3.72Z"/>
      </g>
    </g>
  </g>
  <g>
    <g>
      <path class="cls-4" d="M911.26,133.35c14.14,0,25.6-5.12,25.6-11.43s-11.46-11.43-25.6-11.43-25.6,5.12-25.6,11.43,11.46,11.43,25.6,11.43ZM885.66,132.92v48.79s4.85,11.15,25.6,11.15,25.6-11.15,25.6-11.15v-48.79s-14.54,6.19-25.6,6.19-25.6-6.19-25.6-6.19Z"/>
      <path class="cls-3" d="M911.26,133.35c14.14,0,25.6-5.12,25.6-11.43s-11.46-11.43-25.6-11.43-25.6,5.12-25.6,11.43,11.46,11.43,25.6,11.43ZM885.66,132.92v48.79s4.85,11.15,25.6,11.15,25.6-11.15,25.6-11.15v-48.79s-14.54,6.19-25.6,6.19-25.6-6.19-25.6-6.19Z"/>
    </g>
    <g>
      <path class="cls-4" d="M1099.83,198.77v-71c0-1.66,1.34-3,3-3h16l-83-50-80.96,50.01h14.96c1.66-.01,3,1.33,3,2.98v71c0,1.66-1.34,3-3,3h-10v6h45v-6h-9c-1.66,0-3-1.34-3-3v-71c0-1.66,1.34-3,3-3h31c1.66,0,3,1.34,3,3v71c0,1.66-1.34,3-3,3h-11v6h43v-6h-9c-1.66,0-3-1.34-3-3v-71c0-1.65,1.34-3,3-3h27.01c1.65,0,3,1.34,3,3v71.01c0,1.66-1.34,3-3,3h-10v6h46v-6h-10c-1.66,0-3-1.34-3-3ZM959.83,218.77h153v-7h-153v7ZM959.83,230.77h153v-9h-153v9Z"/>
      <path class="cls-3" d="M1099.83,198.77v-71c0-1.66,1.34-3,3-3h16l-83-50-80.96,50.01h14.96c1.66-.01,3,1.33,3,2.98v71c0,1.66-1.34,3-3,3h-10v6h45v-6h-9c-1.66,0-3-1.34-3-3v-71c0-1.66,1.34-3,3-3h31c1.66,0,3,1.34,3,3v71c0,1.66-1.34,3-3,3h-11v6h43v-6h-9c-1.66,0-3-1.34-3-3v-71c0-1.65,1.34-3,3-3h27.01c1.65,0,3,1.34,3,3v71.01c0,1.66-1.34,3-3,3h-10v6h46v-6h-10c-1.66,0-3-1.34-3-3ZM959.83,218.77h153v-7h-153v7ZM959.83,230.77h153v-9h-153v9Z"/>
    </g>
    <g>
      <g>
        <line class="cls-4" x1="789.28" y1="75.46" x2="869.28" y2="111.46"/>
        <g>
          <line class="cls-2" x1="802.16" y1="81.26" x2="856.4" y2="105.67"/>
          <polygon class="cls-4" points="789.28 75.46 804.09 91.04 803.12 81.69 810.76 76.21 789.28 75.46"/>
          <polygon class="cls-4" points="869.28 111.46 847.8 110.71 855.44 105.23 854.47 95.88 869.28 111.46"/>
        </g>
      </g>
      <g>
        <line class="cls-4" x1="789.28" y1="244.46" x2="869.28" y2="208.46"/>
        <g>
          <line class="cls-2" x1="802.16" y1="238.67" x2="856.4" y2="214.26"/>
          <polygon class="cls-4" points="789.28 244.46 810.76 243.71 803.12 238.23 804.09 228.88 789.28 244.46"/>
          <polygon class="cls-4" points="869.28 208.46 854.47 224.04 855.44 214.69 847.8 209.21 869.28 208.46"/>
        </g>
      </g>
      <g>
        <line class="cls-4" x1="781.28" y1="159.46" x2="869.28" y2="159.46"/>
        <g>
          <line class="cls-2" x1="795.4" y1="159.46" x2="855.16" y2="159.46"/>
          <polygon class="cls-4" points="781.28 159.46 801.18 167.59 796.46 159.46 801.18 151.33 781.28 159.46"/>
          <polygon class="cls-4" points="869.28 159.46 849.38 167.59 854.1 159.46 849.38 151.33 869.28 159.46"/>
        </g>
      </g>
      <g>
        <circle class="cls-1" cx="753.99" cy="49.93" r="9.49"/>
        <path class="cls-1" d="M753.99,57.17s-3.59-.12-7.43,3.72c-8.47,8.47-14.28,44.2-14.28,44.2h43.42s-5.81-35.73-14.28-44.2c-3.84-3.84-7.43-3.72-7.43-3.72Z"/>
      </g>
      <g>
        <circle class="cls-1" cx="753.99" cy="133.3" r="9.49"/>
        <path class="cls-1" d="M753.99,140.55s-3.59-.12-7.43,3.72c-8.47,8.47-14.28,44.2-14.28,44.2h43.42s-5.81-35.73-14.28-44.2c-3.84-3.84-7.43-3.72-7.43-3.72Z"/>
      </g>
      <g>
        <circle class="cls-1" cx="753.99" cy="217.3" r="9.49"/>
        <path class="cls-1" d="M753.99,224.55s-3.59-.12-7.43,3.72c-8.47,8.47-14.28,44.2-14.28,44.2h43.42s-5.81-35.73-14.28-44.2c-3.84-3.84-7.43-3.72-7.43-3.72Z"/>
      </g>
    </g>
  </g>
</svg>