<?xml version="1.0" encoding="UTF-8"?>
<svg id="Layer_7" data-name="Layer 7" xmlns="http://www.w3.org/2000/svg" viewBox="0 0 1360 980">
  <defs>
    <style>
      .cls-1 {
        stroke: #fff;
      }

      .cls-1, .cls-2 {
        stroke-miterlimit: 10;
      }

      .cls-3 {
        opacity: .3;
      }

      .cls-3, .cls-2 {
        fill: none;
      }

      .cls-3, .cls-4 {
        stroke-width: 0px;
      }

      .cls-2 {
        stroke: #000;
        stroke-width: 4px;
      }
    </style>
  </defs>
  <rect class="cls-3" x="63" y="57.16" width="1261.18" height="900.84"/>
  <path class="cls-4" d="M378.69,192.53v-102.56h-34.16v96.24l-33.53,17.08v-68.95h-19.61v51.24l-33.53,15.18v-19.61l-55.03,27.83v63.26h203.06v-91.14l-27.2,11.43ZM240.42,255.15h-15.81v-23.41h15.81v23.41ZM275.87,255.15h-15.81v-23.41h15.81v23.41ZM312.27,255.15h-15.81v-23.41h15.81v23.41ZM350.23,255.15h-15.81v-23.41h15.81v23.41Z"/>
  <path class="cls-4" d="M442.02,176.31c14.14,0,25.6-5.12,25.6-11.43s-11.46-11.43-25.6-11.43-25.6,5.12-25.6,11.43,11.46,11.43,25.6,11.43ZM416.42,175.88v48.79s4.85,11.15,25.6,11.15,25.6-11.15,25.6-11.15v-48.79s-14.54,6.19-25.6,6.19-25.6-6.19-25.6-6.19Z"/>
  <path class="cls-4" d="M442.26,787.23c14.14,0,25.6-5.12,25.6-11.43s-11.46-11.43-25.6-11.43-25.6,5.12-25.6,11.43,11.46,11.43,25.6,11.43ZM416.66,786.8v48.79s4.85,11.15,25.6,11.15,25.6-11.15,25.6-11.15v-48.79s-14.54,6.19-25.6,6.19-25.6-6.19-25.6-6.19Z"/>
  <path class="cls-4" d="M860.47,787.23c14.14,0,25.6-5.12,25.6-11.43s-11.46-11.43-25.6-11.43-25.6,5.12-25.6,11.43,11.46,11.43,25.6,11.43ZM834.87,786.8v48.79s4.85,11.15,25.6,11.15,25.6-11.15,25.6-11.15v-48.79s-14.54,6.19-25.6,6.19-25.6-6.19-25.6-6.19Z"/>
  <path class="cls-4" d="M882.26,176.31c14.14,0,25.6-5.12,25.6-11.43s-11.46-11.43-25.6-11.43-25.6,5.12-25.6,11.43,11.46,11.43,25.6,11.43ZM856.66,175.88v48.79s4.85,11.15,25.6,11.15,25.6-11.15,25.6-11.15v-48.79s-14.54,6.19-25.6,6.19-25.6-6.19-25.6-6.19Z"/>
  <path class="cls-4" d="M1070.83,241.73v-71c0-1.66,1.34-3,3-3h16l-83-50-80.96,50.01h14.96c1.66-.01,3,1.33,3,2.98v71c0,1.66-1.34,3-3,3h-10v6h45v-6h-9c-1.66,0-3-1.34-3-3v-71c0-1.66,1.34-3,3-3h31c1.66,0,3,1.34,3,3v71c0,1.66-1.34,3-3,3h-11v6h43v-6h-9c-1.66,0-3-1.34-3-3v-71c0-1.65,1.34-3,3-3h27.01c1.65,0,3,1.34,3,3v71.01c0,1.65-1.34,3-3,3h-10v6h46v-6h-10c-1.66,0-3-1.34-3-3ZM930.83,261.73h153v-7h-153v7ZM930.83,273.73h153v-9h-153v9Z"/>
  <path class="cls-4" d="M667.87,286.73c-25.96,0-47,21.04-47,47s21.04,47,47,47,47-21.04,47-47-21.04-47-47-47ZM665.92,359.59c-2.73,0-4.6-2.11-4.6-4.84,0-2.89,1.95-4.91,4.68-4.91s4.6,2.03,4.6,4.91c0,2.73-1.79,4.84-4.68,4.84ZM673.48,330.34c-3.43,4.06-4.68,7.49-4.45,11.47l.08,2.03h-6.08l-.16-2.03c-.47-4.21.94-8.81,4.84-13.49,3.51-4.13,5.46-7.18,5.46-10.69,0-3.98-2.5-6.63-7.41-6.71-2.81,0-5.93.94-7.88,2.42l-1.87-4.91c2.57-1.87,7.02-3.12,11.15-3.12,8.97,0,13.03,5.54,13.03,11.47,0,5.3-2.96,9.13-6.71,13.57Z"/>
  <g>
    <line class="cls-2" x1="813.11" y1="509.73" x2="1010.63" y2="509.73"/>
    <polygon class="cls-4" points="784.87 509.73 824.66 525.99 815.22 509.73 824.66 493.47 784.87 509.73"/>
    <polygon class="cls-4" points="1038.87 509.73 999.07 525.99 1008.51 509.73 999.07 493.47 1038.87 509.73"/>
  </g>
  <g>
    <line class="cls-2" x1="324.62" y1="508.77" x2="522.14" y2="508.77"/>
    <polygon class="cls-4" points="296.38 508.77 336.18 525.03 326.73 508.77 336.18 492.51 296.38 508.77"/>
    <polygon class="cls-4" points="550.38 508.77 510.58 525.03 520.03 508.77 510.58 492.51 550.38 508.77"/>
  </g>
  <g>
    <line class="cls-4" x1="766.87" y1="436.73" x2="910.87" y2="292.73"/>
    <g>
      <line class="cls-2" x1="786.84" y1="416.76" x2="890.9" y2="312.7"/>
      <polygon class="cls-4" points="766.87 436.73 806.51 420.09 788.33 415.27 783.51 397.1 766.87 436.73"/>
      <polygon class="cls-4" points="910.87 292.73 894.23 332.37 889.4 314.2 871.23 309.38 910.87 292.73"/>
    </g>
  </g>
  <g>
    <line class="cls-4" x1="574.87" y1="436.73" x2="430.87" y2="292.73"/>
    <g>
      <line class="cls-2" x1="554.9" y1="416.76" x2="450.84" y2="312.7"/>
      <polygon class="cls-4" points="574.87 436.73 558.23 397.09 553.4 415.27 535.23 420.09 574.87 436.73"/>
      <polygon class="cls-4" points="430.87 292.73 470.51 309.37 452.33 314.2 447.51 332.37 430.87 292.73"/>
    </g>
  </g>
  <g>
    <line class="cls-4" x1="573.87" y1="579.73" x2="430.87" y2="724.73"/>
    <g>
      <line class="cls-2" x1="554.04" y1="599.84" x2="450.7" y2="704.62"/>
      <polygon class="cls-4" points="573.87 579.73 534.34 596.65 552.55 601.34 557.5 619.48 573.87 579.73"/>
      <polygon class="cls-4" points="430.87 724.73 447.23 684.98 452.18 703.12 470.39 707.81 430.87 724.73"/>
    </g>
  </g>
  <g>
    <line class="cls-4" x1="766.87" y1="580.73" x2="910.87" y2="724.73"/>
    <g>
      <line class="cls-2" x1="786.84" y1="600.7" x2="890.9" y2="704.76"/>
      <polygon class="cls-4" points="766.87 580.73 783.51 620.37 788.33 602.2 806.5 597.38 766.87 580.73"/>
      <polygon class="cls-4" points="910.87 724.73 871.23 708.09 889.4 703.27 894.22 685.1 910.87 724.73"/>
    </g>
  </g>
  <path class="cls-4" d="M1109.87,866.73c-1.1,0-2-.9-2-2v-95.57c0-4.11-3.33-7.43-7.43-7.43h-45.57l.98,102.98c.01,1.11-.89,2.02-2,2.02h-2.98c-1.1,0-2-.9-2-2v-130.57c0-4.11-3.33-7.43-7.43-7.43h-72.13c-4.11,0-7.43,3.33-7.43,7.43v130.57c0,1.1-.9,2-2,2h-2c-1.1,0-2-.9-2-2v-103h-44.57c-4.11,0-7.43,3.33-7.43,7.43v95.57c0,1.1-.9,2-2,2h-10v17h228v-17h-10ZM929.87,831.71c0,1.67-1.35,3.02-3.02,3.02h-6.95c-1.67,0-3.02-1.35-3.02-3.02v-7.95c0-1.67,1.35-3.02,3.02-3.02h6.95c1.67,0,3.02,1.35,3.02,3.02v7.95ZM929.87,811.71c0,1.67-1.35,3.02-3.02,3.02h-6.95c-1.67,0-3.02-1.35-3.02-3.02v-7.95c0-1.67,1.35-3.02,3.02-3.02h6.95c1.67,0,3.02,1.35,3.02,3.02v7.95ZM929.87,791.71c0,1.67-1.35,3.02-3.02,3.02h-6.95c-1.67,0-3.02-1.35-3.02-3.02v-7.95c0-1.67,1.35-3.02,3.02-3.02h6.95c1.67,0,3.02,1.35,3.02,3.02v7.95ZM948.87,831.71c0,1.67-1.35,3.02-3.02,3.02h-6.95c-1.67,0-3.02-1.35-3.02-3.02v-7.95c0-1.67,1.35-3.02,3.02-3.02h6.95c1.67,0,3.02,1.35,3.02,3.02v7.95ZM948.87,811.71c0,1.67-1.35,3.02-3.02,3.02h-6.95c-1.67,0-3.02-1.35-3.02-3.02v-7.95c0-1.67,1.35-3.02,3.02-3.02h6.95c1.67,0,3.02,1.35,3.02,3.02v7.95ZM948.87,791.71c0,1.67-1.35,3.02-3.02,3.02h-6.95c-1.67,0-3.02-1.35-3.02-3.02v-7.95c0-1.67,1.35-3.02,3.02-3.02h6.95c1.67,0,3.02,1.35,3.02,3.02v7.95ZM1025.87,863.28c0,3.01-2.44,5.46-5.46,5.46h-26.09c-3.01,0-5.46-2.44-5.46-5.46v-35.09c0-3.01,2.44-5.46,5.46-5.46h26.09c3.01,0,5.46,2.44,5.46,5.46v35.09ZM1006.87,794.73c-16.02,0-29-12.98-29-29s12.98-29,29-29,29,12.98,29,29-12.98,29-29,29ZM1080.87,831.71c0,1.67-1.35,3.02-3.02,3.02h-6.95c-1.67,0-3.02-1.35-3.02-3.02v-7.95c0-1.67,1.35-3.02,3.02-3.02h6.95c1.67,0,3.02,1.35,3.02,3.02v7.95ZM1080.87,811.71c0,1.67-1.35,3.02-3.02,3.02h-6.95c-1.67,0-3.02-1.35-3.02-3.02v-7.95c0-1.67,1.35-3.02,3.02-3.02h6.95c1.67,0,3.02,1.35,3.02,3.02v7.95ZM1080.87,791.71c0,1.67-1.35,3.02-3.02,3.02h-6.95c-1.67,0-3.02-1.35-3.02-3.02v-7.95c0-1.67,1.35-3.02,3.02-3.02h6.95c1.67,0,3.02,1.35,3.02,3.02v7.95ZM1098.87,831.71c0,1.67-1.35,3.02-3.02,3.02h-6.95c-1.67,0-3.02-1.35-3.02-3.02v-7.95c0-1.67,1.35-3.02,3.02-3.02h6.95c1.67,0,3.02,1.35,3.02,3.02v7.95ZM1098.87,811.71c0,1.67-1.35,3.02-3.02,3.02h-6.95c-1.67,0-3.02-1.35-3.02-3.02v-7.95c0-1.67,1.35-3.02,3.02-3.02h6.95c1.67,0,3.02,1.35,3.02,3.02v7.95ZM1098.87,791.71c0,1.67-1.35,3.02-3.02,3.02h-6.95c-1.67,0-3.02-1.35-3.02-3.02v-7.95c0-1.67,1.35-3.02,3.02-3.02h6.95c1.67,0,3.02,1.35,3.02,3.02v7.95ZM1012.87,745.73h-13v12h-12v13h12v12h13v-12h12v-13h-12v-12Z"/>
  <path class="cls-4" d="M338.87,728.73c-57,0-58,53-58,53h118s-3-53-60-53ZM340.87,697.73h-3v29h3v-29ZM354.87,711.73c3.71,1.49,15,3,15,3v-15s-6,3-13,0-14-2-14-2v14s7-2,12,0ZM406.87,785.73h-136v8h136v-8ZM406.87,855.73h-136v15h136v-15ZM258.87,874.73v10h160v-10h-160ZM296.87,850.73v-53h-17v53h17ZM330.87,850.73v-53h-17v53h17ZM364.87,850.73v-53h-17v53h17ZM399.87,850.73v-53h-17v53h17Z"/>
  <g>
    <path class="cls-4" d="M1240.13,520.13l-1.51-.5-.39-1.54c-4.41-17.22-19.91-29.24-37.71-29.24s-32.26,11.31-37.23,27.51l-.7,2.29-2.38-.25c-1.36-.14-2.74-.21-4.11-.21-21.47,0-38.94,17.47-38.94,38.94s17.47,38.94,38.94,38.94h71.83c21.47,0,38.94-17.47,38.94-38.94,0-16.86-10.74-31.72-26.73-36.99Z"/>
    <path class="cls-4" d="M1110.04,557.12c0-.53.02-1.06.04-1.59-19.65-3.2-31.07-10.39-31.07-14.78,0-1.4,1.17-3.08,3.38-4.83,8.28,3.9,18.65,6.59,29.57,8.04,3.34-11.18,10.81-20.58,20.64-26.44-.5,0-1,.01-1.51.01-32.31,0-52.08-10.63-52.08-16.42,0-1.4,1.17-3.08,3.38-4.82,13.05,6.14,31.26,9.3,48.7,9.3,10.54,0,21.35-1.16,31.15-3.43,2.47-3.69,5.48-7.04,8.95-9.9,7.2-5.95,16.07-9.56,25.34-10.37.62-1.29,1.08-2.63,1.36-4.02v-16.38c0-4.96-2.09-9.35-5.7-13.17,2.93-2.99,4.93-6.35,5.7-10.07v-16.38c0-20.22-34.42-31.13-66.8-31.13s-66.8,10.91-66.8,31.13v16.04s.05.34.05.34c.77,3.71,2.75,7.06,5.66,10.04-3.62,3.82-5.71,8.23-5.71,13.2v16.04s.05.34.05.34c.77,3.71,2.75,7.06,5.66,10.04-3.62,3.83-5.71,8.23-5.71,13.2v16.04s.05.34.05.34c.77,3.71,2.75,7.06,5.66,10.04-3.62,3.82-5.71,8.23-5.71,13.2v16.04s.05.34.05.34c3.26,15.78,28.26,25.04,54.62,27.22-5.61-7.63-8.93-17.04-8.93-27.22ZM1131.09,405.45c32.3,0,52.08,10.63,52.08,16.41s-19.77,16.42-52.08,16.42-52.08-10.63-52.08-16.42c0-5.79,19.78-16.41,52.08-16.41ZM1082.39,456.67c13.05,6.14,31.26,9.3,48.7,9.3s35.66-3.15,48.71-9.29c2.19,1.74,3.36,3.42,3.36,4.81,0,5.79-19.77,16.42-52.08,16.42s-52.08-10.63-52.08-16.42c0-1.4,1.17-3.08,3.38-4.82Z"/>
    <path class="cls-4" d="M1118.79,602.86c-5.62,1.95-11.66,1.6-17.02-.99-5.35-2.59-9.38-7.11-11.33-12.73-1.05-3.03-4.36-4.63-7.39-3.58-3.03,1.05-4.63,4.36-3.58,7.39,2.97,8.55,9.1,15.43,17.25,19.37,4.67,2.26,9.69,3.4,14.73,3.4,3.75,0,7.52-.63,11.16-1.9,3.03-1.05,4.63-4.36,3.58-7.39-1.05-3.03-4.36-4.63-7.39-3.58Z"/>
    <path class="cls-4" d="M1211.14,470.04c12.28.1,22.19,10.17,22.08,22.45-.03,3.21,2.55,5.83,5.76,5.86h.05c3.19,0,5.78-2.57,5.81-5.76.15-18.68-14.92-34.01-33.61-34.16h-.05c-3.18,0-5.78,2.57-5.81,5.76-.03,3.21,2.55,5.83,5.76,5.86Z"/>
  </g>
  <g>
    <path class="cls-4" d="M278.71,527.13l-1.51-.5-.39-1.54c-4.41-17.22-19.91-29.24-37.71-29.24s-32.26,11.31-37.23,27.51l-.7,2.29-2.38-.25c-1.36-.14-2.74-.21-4.11-.21-21.47,0-38.94,17.47-38.94,38.94s17.47,38.94,38.94,38.94h71.83c21.47,0,38.94-17.47,38.94-38.94,0-16.86-10.74-31.72-26.73-36.99Z"/>
    <path class="cls-4" d="M148.61,564.12c0-.53.02-1.06.04-1.59-19.65-3.2-31.07-10.39-31.07-14.78,0-1.4,1.17-3.08,3.38-4.83,8.28,3.9,18.65,6.59,29.57,8.04,3.34-11.18,10.81-20.58,20.64-26.44-.5,0-1,.01-1.51.01-32.31,0-52.08-10.63-52.08-16.42,0-1.4,1.17-3.08,3.38-4.82,13.05,6.14,31.26,9.3,48.7,9.3,10.54,0,21.35-1.16,31.15-3.43,2.47-3.69,5.48-7.04,8.95-9.9,7.2-5.95,16.07-9.56,25.34-10.37.62-1.29,1.08-2.63,1.36-4.02v-16.38c0-4.96-2.09-9.35-5.7-13.17,2.93-2.99,4.93-6.35,5.7-10.07v-16.38c0-20.22-34.42-31.13-66.8-31.13s-66.8,10.91-66.8,31.13v16.04s.05.34.05.34c.77,3.71,2.75,7.06,5.66,10.04-3.62,3.82-5.71,8.23-5.71,13.2v16.04s.05.34.05.34c.77,3.71,2.75,7.06,5.66,10.04-3.62,3.83-5.71,8.23-5.71,13.2v16.04s.05.34.05.34c.77,3.71,2.75,7.06,5.66,10.04-3.62,3.82-5.71,8.23-5.71,13.2v16.04s.05.34.05.34c3.26,15.78,28.26,25.04,54.62,27.22-5.61-7.63-8.93-17.04-8.93-27.22ZM169.67,412.45c32.3,0,52.08,10.63,52.08,16.41s-19.77,16.42-52.08,16.42-52.08-10.63-52.08-16.42c0-5.79,19.78-16.41,52.08-16.41ZM120.96,463.67c13.05,6.14,31.26,9.3,48.7,9.3s35.66-3.15,48.71-9.29c2.19,1.74,3.36,3.42,3.36,4.81,0,5.79-19.77,16.42-52.08,16.42s-52.08-10.63-52.08-16.42c0-1.4,1.17-3.08,3.38-4.82Z"/>
    <path class="cls-4" d="M157.37,609.86c-5.62,1.95-11.66,1.6-17.02-.99-5.35-2.59-9.38-7.11-11.33-12.73-1.05-3.03-4.36-4.63-7.39-3.58-3.03,1.05-4.63,4.36-3.58,7.39,2.97,8.55,9.1,15.43,17.25,19.37,4.67,2.26,9.69,3.4,14.73,3.4,3.75,0,7.52-.63,11.16-1.9,3.03-1.05,4.63-4.36,3.58-7.39-1.05-3.03-4.36-4.63-7.39-3.58Z"/>
    <path class="cls-4" d="M249.72,477.04c12.28.1,22.19,10.17,22.08,22.45-.03,3.21,2.55,5.83,5.76,5.86h.05c3.19,0,5.78-2.57,5.81-5.76.15-18.68-14.92-34.01-33.61-34.16h-.05c-3.18,0-5.78,2.57-5.81,5.76-.03,3.21,2.55,5.83,5.76,5.86Z"/>
  </g>
  <g>
    <circle class="cls-1" cx="669.12" cy="446.56" r="22.83"/>
    <path class="cls-1" d="M669.12,464s8.65-.29,17.89,8.94c20.39,20.39,34.36,106.37,34.36,106.37h-52.25s-52.25,0-52.25,0c0,0,13.98-85.99,34.36-106.37,9.24-9.24,17.89-8.94,17.89-8.94Z"/>
  </g>
</svg>